<svg
  viewBox="0 0 37 37"
  width="256"
  height="256"
  fill="#000000"
  shape-rendering="crispEdges"
  xmlns="http://www.w3.org/2000/svg"
  version="1.1"
>
  <path
    transform="matrix(1,0,0,1,4,4)"
    d="M27,28h1v1h-1v-1zM22,28h2v1h-2v-1zM20,28h1v1h-1v-1zM18,28h1v1h-1v-1zM15,28h2v1h-2v-1zM9,28h5v1h-5v-1zM0,28h7v1h-7v-1zM27,27h1v1h-1v-1zM24,27h2v1h-2v-1zM18,27h4v1h-4v-1zM16,27h1v1h-1v-1zM10,27h2v1h-2v-1zM8,27h1v1h-1v-1zM6,27h1v1h-1v-1zM0,27h1v1h-1v-1zM28,26h1v1h-1v-1zM15,26h5v1h-5v-1zM13,26h1v1h-1v-1zM10,26h2v1h-2v-1zM8,26h1v1h-1v-1zM6,26h1v1h-1v-1zM2,26h3v1h-3v-1zM0,26h1v1h-1v-1zM24,25h4v1h-4v-1zM21,25h1v1h-1v-1zM18,25h2v1h-2v-1zM16,25h1v1h-1v-1zM14,25h1v1h-1v-1zM11,25h2v1h-2v-1zM8,25h1v1h-1v-1zM6,25h1v1h-1v-1zM2,25h3v1h-3v-1zM0,25h1v1h-1v-1zM20,24h8v1h-8v-1zM18,24h1v1h-1v-1zM14,24h2v1h-2v-1zM6,24h1v1h-1v-1zM2,24h3v1h-3v-1zM0,24h1v1h-1v-1zM27,23h1v1h-1v-1zM24,23h1v1h-1v-1zM20,23h1v1h-1v-1zM18,23h1v1h-1v-1zM12,23h1v1h-1v-1zM8,23h1v1h-1v-1zM6,23h1v1h-1v-1zM0,23h1v1h-1v-1zM26,22h2v1h-2v-1zM24,22h1v1h-1v-1zM22,22h1v1h-1v-1zM19,22h2v1h-2v-1zM16,22h2v1h-2v-1zM10,22h1v1h-1v-1zM0,22h7v1h-7v-1zM28,21h1v1h-1v-1zM24,21h2v1h-2v-1zM18,21h3v1h-3v-1zM16,21h1v1h-1v-1zM14,21h1v1h-1v-1zM8,21h4v1h-4v-1zM19,20h9v1h-9v-1zM16,20h2v1h-2v-1zM13,20h2v1h-2v-1zM9,20h2v1h-2v-1zM5,20h3v1h-3v-1zM3,20h1v1h-1v-1zM1,20h1v1h-1v-1zM25,19h2v1h-2v-1zM17,19h6v1h-6v-1zM13,19h1v1h-1v-1zM10,19h2v1h-2v-1zM4,19h2v1h-2v-1zM2,19h1v1h-1v-1zM26,18h1v1h-1v-1zM24,18h1v1h-1v-1zM22,18h1v1h-1v-1zM20,18h1v1h-1v-1zM15,18h2v1h-2v-1zM12,18h1v1h-1v-1zM4,18h3v1h-3v-1zM2,18h1v1h-1v-1zM0,18h1v1h-1v-1zM26,17h1v1h-1v-1zM23,17h1v1h-1v-1zM21,17h1v1h-1v-1zM16,17h1v1h-1v-1zM14,17h1v1h-1v-1zM9,17h1v1h-1v-1zM7,17h1v1h-1v-1zM5,17h1v1h-1v-1zM1,17h1v1h-1v-1zM24,16h2v1h-2v-1zM15,16h4v1h-4v-1zM12,16h2v1h-2v-1zM10,16h1v1h-1v-1zM8,16h1v1h-1v-1zM4,16h3v1h-3v-1zM1,16h2v1h-2v-1zM28,15h1v1h-1v-1zM25,15h1v1h-1v-1zM21,15h2v1h-2v-1zM16,15h4v1h-4v-1zM13,15h2v1h-2v-1zM11,15h1v1h-1v-1zM8,15h2v1h-2v-1zM5,15h1v1h-1v-1zM27,14h2v1h-2v-1zM24,14h2v1h-2v-1zM17,14h4v1h-4v-1zM13,14h1v1h-1v-1zM10,14h1v1h-1v-1zM6,14h2v1h-2v-1zM4,14h1v1h-1v-1zM0,14h2v1h-2v-1zM28,13h1v1h-1v-1zM25,13h2v1h-2v-1zM22,13h2v1h-2v-1zM18,13h2v1h-2v-1zM14,13h3v1h-3v-1zM12,13h1v1h-1v-1zM5,13h1v1h-1v-1zM3,13h1v1h-1v-1zM0,13h1v1h-1v-1zM26,12h3v1h-3v-1zM21,12h1v1h-1v-1zM16,12h3v1h-3v-1zM14,12h1v1h-1v-1zM11,12h2v1h-2v-1zM9,12h1v1h-1v-1zM5,12h3v1h-3v-1zM0,12h1v1h-1v-1zM28,11h1v1h-1v-1zM25,11h1v1h-1v-1zM23,11h1v1h-1v-1zM19,11h3v1h-3v-1zM15,11h2v1h-2v-1zM9,11h5v1h-5v-1zM0,11h6v1h-6v-1zM26,10h2v1h-2v-1zM20,10h3v1h-3v-1zM13,10h2v1h-2v-1zM3,10h4v1h-4v-1zM0,10h1v1h-1v-1zM28,9h1v1h-1v-1zM24,9h2v1h-2v-1zM22,9h1v1h-1v-1zM18,9h2v1h-2v-1zM16,9h1v1h-1v-1zM14,9h1v1h-1v-1zM9,9h3v1h-3v-1zM3,9h2v1h-2v-1zM0,9h1v1h-1v-1zM26,8h2v1h-2v-1zM19,8h2v1h-2v-1zM16,8h1v1h-1v-1zM10,8h5v1h-5v-1zM5,8h2v1h-2v-1zM1,8h3v1h-3v-1zM15,7h4v1h-4v-1zM9,7h1v1h-1v-1zM22,6h7v1h-7v-1zM20,6h1v1h-1v-1zM18,6h1v1h-1v-1zM16,6h1v1h-1v-1zM14,6h1v1h-1v-1zM12,6h1v1h-1v-1zM10,6h1v1h-1v-1zM8,6h1v1h-1v-1zM0,6h7v1h-7v-1zM28,5h1v1h-1v-1zM22,5h1v1h-1v-1zM16,5h5v1h-5v-1zM9,5h4v1h-4v-1zM6,5h1v1h-1v-1zM0,5h1v1h-1v-1zM28,4h1v1h-1v-1zM24,4h3v1h-3v-1zM22,4h1v1h-1v-1zM18,4h3v1h-3v-1zM15,4h2v1h-2v-1zM13,4h1v1h-1v-1zM10,4h2v1h-2v-1zM6,4h1v1h-1v-1zM2,4h3v1h-3v-1zM0,4h1v1h-1v-1zM28,3h1v1h-1v-1zM24,3h3v1h-3v-1zM22,3h1v1h-1v-1zM20,3h1v1h-1v-1zM17,3h2v1h-2v-1zM9,3h5v1h-5v-1zM6,3h1v1h-1v-1zM2,3h3v1h-3v-1zM0,3h1v1h-1v-1zM28,2h1v1h-1v-1zM24,2h3v1h-3v-1zM22,2h1v1h-1v-1zM18,2h3v1h-3v-1zM15,2h2v1h-2v-1zM13,2h1v1h-1v-1zM8,2h3v1h-3v-1zM6,2h1v1h-1v-1zM2,2h3v1h-3v-1zM0,2h1v1h-1v-1zM28,1h1v1h-1v-1zM22,1h1v1h-1v-1zM17,1h1v1h-1v-1zM11,1h1v1h-1v-1zM8,1h1v1h-1v-1zM6,1h1v1h-1v-1zM0,1h1v1h-1v-1zM22,0h7v1h-7v-1zM18,0h2v1h-2v-1zM15,0h1v1h-1v-1zM13,0h1v1h-1v-1zM9,0h3v1h-3v-1zM0,0h7v1h-7v-1z"
  ></path>
</svg>
