<svg
  viewBox="0 0 37 37"
  width="256"
  height="256"
  fill="#000000"
  shape-rendering="crispEdges"
  xmlns="http://www.w3.org/2000/svg"
  version="1.1"
>
  <path
    transform="matrix(1,0,0,1,4,4)"
    d="M26,28h1v1h-1v-1zM24,28h1v1h-1v-1zM19,28h1v1h-1v-1zM17,28h1v1h-1v-1zM14,28h2v1h-2v-1zM8,28h2v1h-2v-1zM0,28h7v1h-7v-1zM27,27h1v1h-1v-1zM25,27h1v1h-1v-1zM23,27h1v1h-1v-1zM20,27h1v1h-1v-1zM11,27h4v1h-4v-1zM9,27h1v1h-1v-1zM6,27h1v1h-1v-1zM0,27h1v1h-1v-1zM22,26h6v1h-6v-1zM15,26h3v1h-3v-1zM12,26h1v1h-1v-1zM8,26h3v1h-3v-1zM6,26h1v1h-1v-1zM2,26h3v1h-3v-1zM0,26h1v1h-1v-1zM25,25h4v1h-4v-1zM23,25h1v1h-1v-1zM16,25h5v1h-5v-1zM14,25h1v1h-1v-1zM8,25h5v1h-5v-1zM6,25h1v1h-1v-1zM2,25h3v1h-3v-1zM0,25h1v1h-1v-1zM26,24h1v1h-1v-1zM20,24h5v1h-5v-1zM15,24h4v1h-4v-1zM12,24h1v1h-1v-1zM10,24h1v1h-1v-1zM8,24h1v1h-1v-1zM6,24h1v1h-1v-1zM2,24h3v1h-3v-1zM0,24h1v1h-1v-1zM27,23h2v1h-2v-1zM24,23h1v1h-1v-1zM18,23h3v1h-3v-1zM14,23h1v1h-1v-1zM8,23h5v1h-5v-1zM6,23h1v1h-1v-1zM0,23h1v1h-1v-1zM24,22h3v1h-3v-1zM22,22h1v1h-1v-1zM19,22h2v1h-2v-1zM15,22h2v1h-2v-1zM9,22h4v1h-4v-1zM0,22h7v1h-7v-1zM24,21h5v1h-5v-1zM19,21h2v1h-2v-1zM16,21h1v1h-1v-1zM10,21h1v1h-1v-1zM8,21h1v1h-1v-1zM26,20h3v1h-3v-1zM20,20h5v1h-5v-1zM17,20h2v1h-2v-1zM14,20h2v1h-2v-1zM8,20h3v1h-3v-1zM5,20h2v1h-2v-1zM2,20h1v1h-1v-1zM0,20h1v1h-1v-1zM27,19h1v1h-1v-1zM24,19h1v1h-1v-1zM21,19h2v1h-2v-1zM18,19h2v1h-2v-1zM15,19h2v1h-2v-1zM13,19h1v1h-1v-1zM11,19h1v1h-1v-1zM2,19h2v1h-2v-1zM0,19h1v1h-1v-1zM26,18h1v1h-1v-1zM22,18h2v1h-2v-1zM20,18h1v1h-1v-1zM13,18h6v1h-6v-1zM8,18h1v1h-1v-1zM5,18h2v1h-2v-1zM2,18h2v1h-2v-1zM0,18h1v1h-1v-1zM28,17h1v1h-1v-1zM26,17h1v1h-1v-1zM19,17h6v1h-6v-1zM13,17h2v1h-2v-1zM10,17h1v1h-1v-1zM7,17h2v1h-2v-1zM0,17h3v1h-3v-1zM25,16h2v1h-2v-1zM21,16h1v1h-1v-1zM15,16h4v1h-4v-1zM9,16h4v1h-4v-1zM6,16h2v1h-2v-1zM4,16h1v1h-1v-1zM0,16h2v1h-2v-1zM27,15h1v1h-1v-1zM23,15h2v1h-2v-1zM20,15h1v1h-1v-1zM18,15h1v1h-1v-1zM14,15h2v1h-2v-1zM11,15h2v1h-2v-1zM8,15h2v1h-2v-1zM5,15h1v1h-1v-1zM3,15h1v1h-1v-1zM0,15h2v1h-2v-1zM23,14h4v1h-4v-1zM18,14h1v1h-1v-1zM15,14h2v1h-2v-1zM10,14h3v1h-3v-1zM6,14h1v1h-1v-1zM3,14h1v1h-1v-1zM0,14h2v1h-2v-1zM28,13h1v1h-1v-1zM24,13h1v1h-1v-1zM22,13h1v1h-1v-1zM19,13h1v1h-1v-1zM12,13h1v1h-1v-1zM9,13h1v1h-1v-1zM4,13h2v1h-2v-1zM1,13h2v1h-2v-1zM25,12h2v1h-2v-1zM23,12h1v1h-1v-1zM21,12h1v1h-1v-1zM14,12h6v1h-6v-1zM6,12h5v1h-5v-1zM2,12h3v1h-3v-1zM0,12h1v1h-1v-1zM27,11h1v1h-1v-1zM24,11h2v1h-2v-1zM18,11h5v1h-5v-1zM13,11h1v1h-1v-1zM8,11h3v1h-3v-1zM23,10h2v1h-2v-1zM21,10h1v1h-1v-1zM17,10h2v1h-2v-1zM11,10h5v1h-5v-1zM8,10h2v1h-2v-1zM6,10h1v1h-1v-1zM4,10h1v1h-1v-1zM1,10h1v1h-1v-1zM28,9h1v1h-1v-1zM24,9h1v1h-1v-1zM22,9h1v1h-1v-1zM19,9h2v1h-2v-1zM13,9h1v1h-1v-1zM9,9h1v1h-1v-1zM7,9h1v1h-1v-1zM4,9h1v1h-1v-1zM1,9h1v1h-1v-1zM22,8h5v1h-5v-1zM15,8h4v1h-4v-1zM12,8h1v1h-1v-1zM9,8h2v1h-2v-1zM2,8h5v1h-5v-1zM0,8h1v1h-1v-1zM20,7h1v1h-1v-1zM14,7h3v1h-3v-1zM11,7h2v1h-2v-1zM8,7h2v1h-2v-1zM22,6h7v1h-7v-1zM20,6h1v1h-1v-1zM18,6h1v1h-1v-1zM16,6h1v1h-1v-1zM14,6h1v1h-1v-1zM12,6h1v1h-1v-1zM10,6h1v1h-1v-1zM8,6h1v1h-1v-1zM0,6h7v1h-7v-1zM28,5h1v1h-1v-1zM22,5h1v1h-1v-1zM20,5h1v1h-1v-1zM12,5h6v1h-6v-1zM8,5h1v1h-1v-1zM6,5h1v1h-1v-1zM0,5h1v1h-1v-1zM28,4h1v1h-1v-1zM24,4h3v1h-3v-1zM22,4h1v1h-1v-1zM16,4h5v1h-5v-1zM13,4h1v1h-1v-1zM8,4h1v1h-1v-1zM6,4h1v1h-1v-1zM2,4h3v1h-3v-1zM0,4h1v1h-1v-1zM28,3h1v1h-1v-1zM24,3h3v1h-3v-1zM22,3h1v1h-1v-1zM17,3h2v1h-2v-1zM15,3h1v1h-1v-1zM13,3h1v1h-1v-1zM8,3h3v1h-3v-1zM6,3h1v1h-1v-1zM2,3h3v1h-3v-1zM0,3h1v1h-1v-1zM28,2h1v1h-1v-1zM24,2h3v1h-3v-1zM22,2h1v1h-1v-1zM20,2h1v1h-1v-1zM16,2h1v1h-1v-1zM14,2h1v1h-1v-1zM8,2h3v1h-3v-1zM6,2h1v1h-1v-1zM2,2h3v1h-3v-1zM0,2h1v1h-1v-1zM28,1h1v1h-1v-1zM22,1h1v1h-1v-1zM15,1h2v1h-2v-1zM11,1h1v1h-1v-1zM9,1h1v1h-1v-1zM6,1h1v1h-1v-1zM0,1h1v1h-1v-1zM22,0h7v1h-7v-1zM19,0h2v1h-2v-1zM14,0h1v1h-1v-1zM11,0h2v1h-2v-1zM0,0h7v1h-7v-1z"
  ></path>
</svg>
